<svg width="24" height="24" viewBox="0 0 24 24" fill="none" xmlns="http://www.w3.org/2000/svg">
<path d="M12.7236 14.4327L3.34758 14.306C2.63076 14.1043 2.00602 13.6604 1.57974 13.0498C1.15346 12.4393 0.952003 11.6998 1.00967 10.9574C1.06735 10.215 1.38058 9.51556 1.89603 8.97816C2.41149 8.44076 3.09729 8.09865 3.83665 8.01009C3.94773 7.75241 4.10949 7.5197 4.31231 7.32578C4.51513 7.13187 4.75487 6.98071 5.01728 6.88131C5.27968 6.7819 5.5594 6.73627 5.83979 6.74713C6.12018 6.75799 6.39553 6.82511 6.64946 6.94451C6.95371 6.5447 7.37601 6.25071 7.85657 6.10415C8.33713 5.95759 8.85162 5.96589 9.32721 6.12788C9.80279 6.28986 10.2154 6.59732 10.5066 7.00674C10.7978 7.41616 10.9528 7.90681 10.9498 8.40921C11.2332 8.43412 11.5086 8.51691 11.7588 8.65246C12.0089 8.78802 12.2287 8.97345 12.4043 9.1973C12.512 9.18424 12.6203 9.17748 12.7287 9.17703C13.425 9.17703 14.0927 9.45362 14.585 9.94596C15.0774 10.4383 15.354 11.106 15.354 11.8023C15.354 12.4986 15.0774 13.1663 14.585 13.6587C14.0927 14.151 13.425 14.4276 12.7287 14.4276L12.7236 14.4327ZM3.96969 13.822H12.7236C13.0045 13.8225 13.2824 13.7641 13.5393 13.6505C13.7962 13.5369 14.0264 13.3707 14.2151 13.1626C14.4038 12.9545 14.5467 12.7091 14.6346 12.4423C14.7225 12.1755 14.7535 11.8933 14.7255 11.6138C14.6976 11.3343 14.6113 11.0637 14.4722 10.8197C14.3332 10.5756 14.1445 10.3634 13.9183 10.1968C13.6922 10.0302 13.4336 9.91292 13.1593 9.85249C12.8849 9.79207 12.601 9.78986 12.3258 9.84602H12.265H12.0964L11.9989 9.70411C11.8659 9.4954 11.6823 9.32363 11.4653 9.20469C11.2482 9.08576 11.0047 9.02352 10.7572 9.02372C10.7154 9.02372 10.6748 9.02372 10.6305 9.02372L10.2504 9.05413L10.3074 8.67402C10.3752 8.26285 10.2962 7.84092 10.084 7.48223C9.87187 7.12354 9.54021 6.85098 9.14721 6.71237C8.7542 6.57376 8.32495 6.57795 7.93472 6.72419C7.5445 6.87043 7.21821 7.14939 7.0131 7.51215L6.84839 7.79469L6.57978 7.61351C6.3895 7.48758 6.17257 7.40755 5.94609 7.37975C5.71961 7.35194 5.48977 7.37711 5.27467 7.45327C5.05958 7.52943 4.86512 7.6545 4.7066 7.81863C4.54808 7.98276 4.42984 8.18146 4.3612 8.39907L4.29658 8.60306L4.08372 8.61447C3.4507 8.64954 2.85226 8.91448 2.40074 9.35954C1.94923 9.8046 1.6757 10.3992 1.63153 11.0316C1.58735 11.6641 1.77557 12.2909 2.16082 12.7944C2.54608 13.2979 3.10188 13.6435 3.72388 13.7662L3.96969 13.822Z" fill="white"/>
<path d="M5.68799 14.1198C5.68788 13.4422 5.91409 12.784 6.33071 12.2496C6.74733 11.7152 7.33051 11.3353 7.98766 11.1701C8.07826 10.7603 8.27727 10.3822 8.5639 10.0756C8.85052 9.76888 9.21424 9.54479 9.61706 9.42671C9.54966 9.19247 9.56179 8.9425 9.65156 8.71589C9.74133 8.48928 9.90368 8.29881 10.1132 8.17428C10.3227 8.04974 10.5676 7.99817 10.8096 8.02763C11.0516 8.05708 11.2769 8.1659 11.4505 8.33706C11.8537 7.9501 12.3368 7.65619 12.8658 7.47601C13.3948 7.29582 13.9569 7.23374 14.5124 7.29413C15.068 7.35452 15.6036 7.53591 16.0816 7.82555C16.5595 8.11518 16.9682 8.50603 17.2788 8.97058C17.6347 8.82476 18.021 8.76881 18.4037 8.80767C18.7863 8.84653 19.1535 8.97899 19.4729 9.19338C19.7922 9.40776 20.0538 9.69747 20.2346 10.0369C20.4155 10.3764 20.51 10.7551 20.5098 11.1397C20.5095 11.3251 20.487 11.5097 20.4426 11.6896C21.1512 11.7377 21.8136 12.0588 22.2903 12.5854C22.767 13.1119 23.0209 13.8028 22.9985 14.5127C22.9762 15.2226 22.6794 15.8961 22.1706 16.3917C21.6617 16.8872 20.9805 17.166 20.2703 17.1695H8.3513V17.1429C7.61494 17.0508 6.9377 16.6926 6.44715 16.1357C5.95659 15.5789 5.68658 14.8619 5.68799 14.1198Z" fill="white"/>
</svg>
