<svg width="24" height="24" viewBox="0 0 24 24" fill="none" xmlns="http://www.w3.org/2000/svg">
<path d="M23.3705 10.4397C23.3715 9.88035 23.248 9.32783 23.0089 8.82217C22.7699 8.31652 22.4213 7.8704 21.9885 7.51618C21.5556 7.16197 21.0494 6.90853 20.5064 6.77425C19.9634 6.63997 19.3974 6.62822 18.8494 6.73985H18.8384C18.5762 6.32898 18.2148 5.99074 17.7875 5.75636C17.3602 5.52198 16.8807 5.39899 16.3933 5.39875C16.3116 5.39875 16.2363 5.39875 16.153 5.41132C16.1786 5.24288 16.1922 5.07286 16.1939 4.90251C16.1948 4.1549 15.9491 3.42784 15.495 2.83397C15.0409 2.2401 14.4035 1.81257 13.6818 1.6176C12.9601 1.42263 12.1942 1.4711 11.5028 1.75552C10.8114 2.03994 10.233 2.54441 9.85739 3.1908C9.48254 2.94097 9.05468 2.78183 8.60768 2.72598C8.16068 2.67013 7.70682 2.7191 7.28203 2.86903C6.85723 3.01896 6.47318 3.26572 6.16026 3.58977C5.84734 3.91383 5.61416 4.30628 5.47918 4.73605C4.32587 4.8002 3.23561 5.28305 2.41304 6.09398C1.59046 6.90492 1.09213 7.98818 1.01156 9.14047C0.930987 10.2927 1.27372 11.4348 1.97544 12.3523C2.67715 13.2699 3.6896 13.8997 4.82277 14.1238V14.2133H19.5969C20.0926 14.2139 20.5836 14.1167 21.0417 13.9273C21.4998 13.7379 21.9161 13.4599 22.2666 13.1094C22.6171 12.7589 22.8951 12.3426 23.0845 11.8845C23.2739 11.4264 23.3711 10.9354 23.3705 10.4397Z" fill="#29ADFF"/>
<path d="M6.007 18.1831C6.6854 17.5047 6.79218 16.0002 6.79218 16.0002C6.79218 16.0002 5.28776 16.1055 4.61093 16.7854C3.9341 17.4654 3.9498 18.0716 4.33611 18.4579C4.72243 18.8442 5.33016 18.8568 6.007 18.1831Z" fill="#C7EAFF"/>
<path d="M10.0663 18.1832C10.7447 17.5064 10.8514 16.002 10.8514 16.002C10.8514 16.002 9.34702 16.1072 8.66861 16.7871C7.99021 17.4671 8.00906 18.0733 8.39537 18.4596C8.78168 18.8459 9.38785 18.8569 10.0663 18.1832Z" fill="#C7EAFF"/>
<path d="M12.7265 16.7809C12.0481 17.4593 12.0669 18.0671 12.4532 18.4534C12.8395 18.8397 13.4473 18.857 14.1257 18.1786C14.8041 17.5002 14.9109 15.9973 14.9109 15.9973C14.9109 15.9973 13.4049 16.1025 12.7265 16.7809Z" fill="#C7EAFF"/>
<path d="M5.00176 22.2316C5.38807 22.6179 5.9958 22.6368 6.6742 21.9584C7.35261 21.2799 7.45939 19.7771 7.45939 19.7771C7.45939 19.7771 5.95654 19.8807 5.27814 20.5623C4.59974 21.2438 4.61544 21.8453 5.00176 22.2316Z" fill="#C7EAFF"/>
<path d="M9.06099 22.2315C9.4473 22.6178 10.055 22.635 10.7334 21.9582C11.4118 21.2814 11.5186 19.7754 11.5186 19.7754C11.5186 19.7754 10.0142 19.8806 9.3358 20.5606C8.6574 21.2406 8.67468 21.8451 9.06099 22.2315Z" fill="#C7EAFF"/>
<path d="M16.6447 16.7809C15.9663 17.4593 15.9851 18.0671 16.3714 18.4534C16.7578 18.8397 17.3655 18.857 18.0439 18.1786C18.7223 17.5002 18.8291 15.9973 18.8291 15.9973C18.8291 15.9973 17.3231 16.1025 16.6447 16.7809Z" fill="#C7EAFF"/>
<path d="M12.9793 22.2315C13.3656 22.6178 13.9749 22.635 14.6517 21.9582C15.3286 21.2814 15.4369 19.7754 15.4369 19.7754C15.4369 19.7754 13.9325 19.8806 13.2557 20.5606C12.5788 21.2406 12.593 21.8451 12.9793 22.2315Z" fill="#C7EAFF"/>
</svg>
