<svg width="25" height="24" viewBox="0 0 25 24" fill="none" xmlns="http://www.w3.org/2000/svg">
<path d="M23.5 10.6681C23.4993 10.0637 23.3768 9.46699 23.1412 8.92096C22.9057 8.37493 22.563 7.89317 22.1378 7.51039C21.7126 7.12761 21.2156 6.85335 20.6825 6.70735C20.1494 6.56135 19.5934 6.54725 19.0548 6.66608H19.044C18.7861 6.22184 18.4307 5.85623 18.0106 5.60298C17.5904 5.34974 17.119 5.21704 16.6399 5.21712C16.5597 5.21712 16.4855 5.21712 16.4022 5.22901C16.5196 4.38324 16.3651 3.5189 15.9652 2.78508C15.5653 2.05125 14.9452 1.49396 14.2119 1.20931C13.4785 0.92466 12.6778 0.930505 11.9479 1.22584C11.218 1.52118 10.6047 2.0875 10.2138 2.8271C9.8448 2.55761 9.42396 2.38613 8.98446 2.32621C8.54496 2.26629 8.09881 2.31956 7.68122 2.48181C7.26363 2.64406 6.88603 2.91087 6.57821 3.26116C6.27039 3.61145 6.04078 4.03565 5.9075 4.50029C4.77287 4.56838 3.69993 5.09008 2.89037 5.96732C2.08081 6.84456 1.59039 8.01692 1.51131 9.26401C1.43222 10.5111 1.76992 11.747 2.46091 12.7394C3.15191 13.7318 4.14861 14.4124 5.26364 14.6532L19.7882 14.75C20.2757 14.7509 20.7586 14.6459 21.2092 14.4411C21.6598 14.2363 22.0693 13.9357 22.4141 13.5565C22.7589 13.1773 23.0323 12.727 23.2187 12.2314C23.405 11.7357 23.5006 11.2045 23.5 10.6681Z" fill="#9AD8FF"/>
<path d="M9.10905 17.4962C9.10905 17.4473 9.09117 17.4005 9.05933 17.366C9.02749 17.3315 8.98431 17.3121 8.93928 17.3121H8.90105L9.0647 17.1346C9.08065 17.1177 9.09333 17.0974 9.10198 17.0751C9.11063 17.0527 9.11508 17.0287 9.11508 17.0045C9.11508 16.9802 9.11063 16.9562 9.10198 16.9339C9.09333 16.9115 9.08065 16.8913 9.0647 16.8743C9.03267 16.8401 8.98955 16.821 8.94464 16.821C8.89972 16.821 8.85661 16.8401 8.82457 16.8743L8.42079 17.3121H7.89619L8.28926 16.9589C8.32394 16.9276 8.34576 16.8827 8.34992 16.8341C8.35408 16.7854 8.34024 16.7369 8.31144 16.6993C8.28264 16.6617 8.24124 16.6381 8.19635 16.6335C8.15146 16.629 8.10676 16.644 8.07208 16.6753L7.5903 17.1081V16.4182L7.99254 15.9821C8.0085 15.9651 8.02117 15.9448 8.02982 15.9225C8.03847 15.9001 8.04293 15.8761 8.04293 15.8519C8.04293 15.8277 8.03847 15.8037 8.02982 15.7813C8.02117 15.759 8.0085 15.7387 7.99254 15.7217C7.96051 15.6876 7.91739 15.6685 7.87248 15.6685C7.82757 15.6685 7.78445 15.6876 7.75242 15.7217L7.5903 15.8975V15.8511C7.5903 15.8022 7.57241 15.7554 7.54057 15.7209C7.50873 15.6864 7.46555 15.667 7.42053 15.667C7.3755 15.667 7.33232 15.6864 7.30048 15.7209C7.26864 15.7554 7.25076 15.8022 7.25076 15.8511V15.8992L7.08557 15.7217C7.05373 15.6872 7.01054 15.6678 6.96551 15.6678C6.92048 15.6678 6.87729 15.6872 6.84545 15.7217C6.8136 15.7562 6.79572 15.8031 6.79572 15.8519C6.79572 15.9007 6.8136 15.9475 6.84545 15.9821L7.25076 16.4215V16.9904L6.92192 16.5592C6.90772 16.5404 6.89023 16.5248 6.87044 16.5133C6.85065 16.5019 6.82897 16.4948 6.80664 16.4925C6.78431 16.4902 6.76179 16.4927 6.74036 16.4998C6.71893 16.507 6.69902 16.5187 6.68179 16.5343C6.66459 16.5497 6.65038 16.5686 6.63997 16.59C6.62957 16.6113 6.62319 16.6347 6.62119 16.6588C6.6192 16.6829 6.62164 16.7071 6.62837 16.7302C6.6351 16.7532 6.64598 16.7746 6.66038 16.793L7.05957 17.3154H6.42179L6.02107 16.8793C5.98903 16.8451 5.94592 16.826 5.901 16.826C5.85609 16.826 5.81298 16.8451 5.78094 16.8793C5.76499 16.8962 5.75231 16.9165 5.74366 16.9388C5.73501 16.9612 5.73056 16.9852 5.73056 17.0094C5.73056 17.0337 5.73501 17.0577 5.74366 17.08C5.75231 17.1024 5.76499 17.1226 5.78094 17.1396L5.94307 17.3154H5.90024C5.85521 17.3154 5.81203 17.3348 5.78019 17.3693C5.74836 17.4038 5.73047 17.4507 5.73047 17.4995C5.73047 17.5483 5.74836 17.5951 5.78019 17.6296C5.81203 17.6642 5.85521 17.6836 5.90024 17.6836H5.94459L5.78094 17.8627C5.76499 17.8796 5.75231 17.8999 5.74366 17.9223C5.73501 17.9446 5.73056 17.9686 5.73056 17.9928C5.73056 18.0171 5.73501 18.0411 5.74366 18.0634C5.75231 18.0858 5.76499 18.1061 5.78094 18.123C5.79648 18.1402 5.81506 18.1537 5.83557 18.1628C5.85607 18.172 5.87808 18.1765 5.90024 18.1761C5.92261 18.1763 5.9448 18.1717 5.96554 18.1626C5.98627 18.1535 6.00515 18.1401 6.02107 18.123L6.42485 17.6836H6.94945L6.55179 18.0418C6.51711 18.073 6.49529 18.1179 6.49113 18.1666C6.48697 18.2152 6.50081 18.2637 6.52961 18.3013C6.55841 18.3389 6.59981 18.3626 6.6447 18.3671C6.68959 18.3716 6.73429 18.3566 6.76897 18.3253L7.25076 17.8925V18.5824L6.84851 19.0185C6.81666 19.0531 6.79878 19.0999 6.79878 19.1487C6.79878 19.1976 6.81666 19.2444 6.84851 19.2789C6.88035 19.3134 6.92354 19.3328 6.96857 19.3328C7.0136 19.3328 7.05679 19.3134 7.08863 19.2789L7.25076 19.1031V19.1479C7.25076 19.1967 7.26864 19.2435 7.30048 19.2781C7.33232 19.3126 7.3755 19.332 7.42053 19.332C7.46555 19.332 7.50873 19.3126 7.54057 19.2781C7.57241 19.2435 7.5903 19.1967 7.5903 19.1479V19.0998L7.75395 19.2806C7.76948 19.2977 7.78807 19.3113 7.80857 19.3204C7.82908 19.3295 7.85108 19.334 7.87325 19.3336C7.90674 19.3336 7.93948 19.3229 7.96736 19.3028C7.99524 19.2827 8.01701 19.2541 8.02992 19.2205C8.04284 19.187 8.04633 19.1501 8.03995 19.1145C8.03357 19.0789 8.01761 19.046 7.99407 19.0202L7.58877 18.5807V18.0119L7.9176 18.4431C7.93357 18.4641 7.95368 18.4809 7.97644 18.4924C7.9992 18.5039 8.02404 18.5097 8.04914 18.5094C8.08866 18.5096 8.12703 18.495 8.15773 18.468C8.17493 18.4526 8.18915 18.4337 8.19955 18.4123C8.20995 18.3909 8.21634 18.3675 8.21833 18.3435C8.22032 18.3194 8.21788 18.2951 8.21115 18.2721C8.20443 18.2491 8.19354 18.2277 8.17914 18.2093L7.77995 17.6852H8.41621L8.81846 18.123C8.85089 18.157 8.89419 18.176 8.93928 18.1761C8.98277 18.1739 9.02384 18.1538 9.05399 18.1197C9.06995 18.1027 9.08262 18.0825 9.09127 18.0601C9.09992 18.0378 9.10438 18.0138 9.10438 17.9895C9.10438 17.9653 9.09992 17.9413 9.09127 17.9189C9.08262 17.8966 9.06995 17.8763 9.05399 17.8593L8.90105 17.6802H8.94387C8.9881 17.6789 9.03011 17.659 9.06096 17.6246C9.09181 17.5902 9.10907 17.5441 9.10905 17.4962Z" fill="#EDF8FF"/>
<path d="M14.1908 17.4996C14.1908 17.4508 14.1729 17.404 14.141 17.3694C14.1092 17.3349 14.0659 17.3155 14.0209 17.3155H13.9765L14.1403 17.1381C14.1562 17.1211 14.1689 17.1008 14.1776 17.0785C14.1862 17.0561 14.1907 17.0321 14.1907 17.0079C14.1907 16.9836 14.1862 16.9596 14.1776 16.9373C14.1689 16.9149 14.1562 16.8947 14.1403 16.8777C14.1082 16.8435 14.0651 16.8244 14.0201 16.8244C13.9752 16.8244 13.932 16.8435 13.8999 16.8777L13.4958 17.3155H12.9708L13.3688 16.9589C13.4035 16.9277 13.4253 16.8828 13.4295 16.8341C13.4336 16.7855 13.4198 16.737 13.391 16.6994C13.3767 16.6808 13.3592 16.6654 13.3394 16.6541C13.3196 16.6428 13.298 16.6358 13.2758 16.6336C13.2308 16.6291 13.1861 16.6441 13.1514 16.6753L12.6692 17.1082V16.4183L13.0718 15.9821C13.1037 15.9476 13.1216 15.9007 13.1216 15.8519C13.1216 15.8031 13.1037 15.7563 13.0718 15.7217C13.0399 15.6872 12.9967 15.6678 12.9516 15.6678C12.9066 15.6678 12.8633 15.6872 12.8315 15.7217L12.6692 15.8975V15.8511C12.6692 15.8023 12.6513 15.7554 12.6194 15.7209C12.5876 15.6864 12.5444 15.667 12.4993 15.667C12.4542 15.667 12.411 15.6864 12.3791 15.7209C12.3473 15.7554 12.3294 15.8023 12.3294 15.8511V15.8992L12.1641 15.7217C12.1322 15.6872 12.089 15.6678 12.0439 15.6678C11.9988 15.6678 11.9556 15.6872 11.9237 15.7217C11.8919 15.7563 11.8739 15.8031 11.8739 15.8519C11.8739 15.9007 11.8919 15.9476 11.9237 15.9821L12.3294 16.4216V16.9904L11.9987 16.5593C11.9846 16.5407 11.9672 16.5254 11.9475 16.5142C11.9279 16.503 11.9064 16.4961 11.8843 16.4938C11.8622 16.4916 11.8399 16.4941 11.8187 16.5012C11.7975 16.5083 11.7778 16.5198 11.7607 16.5352C11.7436 16.5506 11.7295 16.5694 11.7191 16.5907C11.7088 16.612 11.7024 16.6352 11.7003 16.6592C11.6982 16.6831 11.7005 16.7073 11.7071 16.7303C11.7137 16.7532 11.7243 16.7746 11.7385 16.7931L12.138 17.3155H11.4997L11.0986 16.8793C11.0663 16.8451 11.0229 16.8259 10.9777 16.8259C10.9325 16.8259 10.8891 16.8451 10.8568 16.8793C10.8253 16.9141 10.8076 16.9608 10.8076 17.0095C10.8076 17.0582 10.8253 17.105 10.8568 17.1397L11.0206 17.3155H10.9777C10.9326 17.3155 10.8894 17.3349 10.8576 17.3694C10.8257 17.404 10.8078 17.4508 10.8078 17.4996C10.8078 17.5484 10.8257 17.5953 10.8576 17.6298C10.8894 17.6643 10.9326 17.6837 10.9777 17.6837H11.0252L10.8598 17.8628C10.828 17.8976 10.8101 17.9446 10.8103 17.9936C10.8104 18.0426 10.8285 18.0895 10.8606 18.124C10.8927 18.1585 10.9361 18.1779 10.9813 18.1777C11.0265 18.1775 11.0698 18.1579 11.1017 18.1232L11.5058 17.6837H12.0309L11.6329 18.0419C11.5982 18.073 11.5764 18.1177 11.5721 18.1661C11.5677 18.2146 11.5814 18.263 11.6099 18.3006C11.6259 18.3216 11.646 18.3385 11.6688 18.35C11.6916 18.3615 11.7164 18.3673 11.7416 18.367C11.7811 18.3672 11.8195 18.3525 11.8502 18.3255L12.3324 17.8927V18.5826L11.9298 19.0188C11.9139 19.0357 11.9012 19.056 11.8925 19.0784C11.8839 19.1007 11.8794 19.1247 11.8794 19.149C11.8794 19.1732 11.8839 19.1972 11.8925 19.2195C11.9012 19.2419 11.9139 19.2622 11.9298 19.2791C11.9454 19.2963 11.964 19.3098 11.9845 19.319C12.005 19.3281 12.0271 19.3326 12.0492 19.3322C12.0717 19.3326 12.0939 19.3281 12.1147 19.319C12.1355 19.3099 12.1543 19.2963 12.1702 19.2791L12.3324 19.1033V19.1481C12.3324 19.1969 12.3503 19.2438 12.3822 19.2783C12.4141 19.3128 12.4573 19.3322 12.5024 19.3322C12.5474 19.3322 12.5906 19.3128 12.6225 19.2783C12.6544 19.2438 12.6723 19.1969 12.6723 19.1481V19.1L12.8361 19.2791C12.8679 19.3139 12.9112 19.3335 12.9564 19.3337C13.0017 19.3338 13.0451 19.3145 13.0772 19.28C13.1092 19.2454 13.1273 19.1985 13.1275 19.1495C13.1276 19.1006 13.1098 19.0535 13.0779 19.0188L12.6723 18.5793V18.0104L13.0014 18.4416C13.0174 18.4626 13.0375 18.4795 13.0603 18.4909C13.083 18.5024 13.1079 18.5082 13.133 18.508C13.1726 18.5081 13.211 18.4935 13.2417 18.4665C13.2761 18.4352 13.2977 18.3904 13.3017 18.3419C13.3057 18.2934 13.2919 18.2452 13.2631 18.2078L12.8621 17.6837H13.4989L13.9015 18.1215C13.9339 18.1555 13.9773 18.1745 14.0224 18.1746C14.0671 18.1746 14.11 18.1555 14.1418 18.1215C14.1578 18.1045 14.1705 18.0843 14.1791 18.0619C14.1878 18.0396 14.1922 18.0156 14.1922 17.9913C14.1922 17.9671 14.1878 17.9431 14.1791 17.9207C14.1705 17.8984 14.1578 17.8781 14.1418 17.8611L13.9795 17.6837H14.0224C14.0672 17.6833 14.11 17.6637 14.1416 17.6292C14.1731 17.5947 14.1908 17.5481 14.1908 17.4996Z" fill="#EDF8FF"/>
<path d="M19.2689 17.4987C19.2689 17.4499 19.251 17.4031 19.2191 17.3686C19.1873 17.334 19.144 17.3147 19.099 17.3147H19.0546L19.2184 17.1373C19.2343 17.1203 19.247 17.1001 19.2557 17.0777C19.2643 17.0554 19.2688 17.0314 19.2688 17.0072C19.2688 16.9829 19.2643 16.959 19.2557 16.9366C19.247 16.9143 19.2343 16.894 19.2184 16.877C19.1863 16.8429 19.1432 16.8238 19.0982 16.8238C19.0533 16.8238 19.0101 16.8429 18.978 16.877L18.5739 17.3147H18.0443L18.4423 16.9583C18.477 16.9271 18.4988 16.8822 18.503 16.8335C18.5071 16.7849 18.4933 16.7364 18.4645 16.6989C18.4502 16.6802 18.4327 16.6649 18.4129 16.6536C18.3931 16.6423 18.3715 16.6353 18.3493 16.6331C18.3043 16.6286 18.2596 16.6436 18.2249 16.6748L17.7427 17.1075V16.4179L18.1453 15.9819C18.1772 15.9474 18.1951 15.9006 18.1951 15.8518C18.1951 15.803 18.1772 15.7562 18.1453 15.7217C18.1134 15.6872 18.0702 15.6678 18.0251 15.6678C17.9801 15.6678 17.9368 15.6872 17.905 15.7217L17.7427 15.8974V15.851C17.7427 15.8022 17.7248 15.7554 17.6929 15.7209C17.6611 15.6864 17.6178 15.667 17.5728 15.667C17.5277 15.667 17.4845 15.6864 17.4526 15.7209C17.4208 15.7554 17.4029 15.8022 17.4029 15.851V15.8991L17.2375 15.7217C17.2057 15.6872 17.1624 15.6678 17.1174 15.6678C17.0723 15.6678 17.0291 15.6872 16.9972 15.7217C16.9653 15.7562 16.9474 15.803 16.9474 15.8518C16.9474 15.9006 16.9653 15.9474 16.9972 15.9819L17.4029 16.4212V16.9898L17.0722 16.5588C17.0589 16.5373 17.0416 16.5192 17.0213 16.5056C17.001 16.4919 16.9783 16.4831 16.9547 16.4797C16.931 16.4763 16.907 16.4783 16.8841 16.4857C16.8613 16.4931 16.8402 16.5057 16.8221 16.5226C16.8041 16.5396 16.7896 16.5604 16.7796 16.5839C16.7696 16.6073 16.7643 16.6328 16.764 16.6586C16.7638 16.6845 16.7686 16.71 16.7782 16.7337C16.7878 16.7574 16.8019 16.7785 16.8196 16.7958L17.2192 17.318H16.5808L16.1782 16.882C16.1624 16.8649 16.1437 16.8514 16.1231 16.8421C16.1025 16.8329 16.0804 16.8281 16.0581 16.8281C16.0357 16.8281 16.0136 16.8329 15.993 16.8421C15.9724 16.8514 15.9537 16.8649 15.9379 16.882C15.9221 16.8991 15.9096 16.9194 15.9011 16.9417C15.8925 16.9641 15.8881 16.988 15.8881 17.0121C15.8881 17.0363 15.8925 17.0602 15.9011 17.0826C15.9096 17.1049 15.9221 17.1252 15.9379 17.1423L16.1002 17.318H16.0542C16.0092 17.318 15.966 17.3374 15.9341 17.3719C15.9022 17.4064 15.8843 17.4532 15.8843 17.502C15.8843 17.5508 15.9022 17.5976 15.9341 17.6321C15.966 17.6666 16.0092 17.686 16.0542 17.686H16.0986L15.9333 17.865C15.9097 17.8908 15.8938 17.9236 15.8874 17.9592C15.881 17.9949 15.8845 18.0318 15.8974 18.0652C15.9103 18.0987 15.9321 18.1273 15.96 18.1474C15.9879 18.1676 16.0207 18.1783 16.0542 18.1783C16.0764 18.1787 16.0984 18.1741 16.119 18.165C16.1395 18.1559 16.1581 18.1424 16.1736 18.1252L16.5793 17.686H17.1044L16.7063 18.044C16.6717 18.0751 16.6498 18.1197 16.6455 18.1682C16.6412 18.2166 16.6548 18.265 16.6834 18.3026C16.6994 18.3236 16.7195 18.3404 16.7423 18.3519C16.7651 18.3634 16.7899 18.3692 16.815 18.3689C16.8546 18.3691 16.893 18.3544 16.9237 18.3275L17.4059 17.8948V18.5844L17.0033 19.0203C16.9874 19.0373 16.9747 19.0576 16.966 19.0799C16.9574 19.1023 16.9529 19.1262 16.9529 19.1505C16.9529 19.1747 16.9574 19.1987 16.966 19.221C16.9747 19.2434 16.9874 19.2636 17.0033 19.2806C17.0189 19.2977 17.0375 19.3113 17.058 19.3204C17.0785 19.3295 17.1005 19.334 17.1227 19.3336C17.1451 19.334 17.1674 19.3296 17.1882 19.3204C17.209 19.3113 17.2278 19.2978 17.2437 19.2806L17.4059 19.1049V19.1496C17.4059 19.1984 17.4238 19.2452 17.4557 19.2797C17.4876 19.3142 17.5308 19.3336 17.5758 19.3336C17.6209 19.3336 17.6641 19.3142 17.696 19.2797C17.7279 19.2452 17.7458 19.1984 17.7458 19.1496V19.1016L17.9095 19.2806C17.9254 19.2978 17.9442 19.3113 17.965 19.3204C17.9858 19.3296 18.0081 19.334 18.0305 19.3336C18.0527 19.334 18.0747 19.3295 18.0952 19.3204C18.1157 19.3113 18.1343 19.2977 18.1499 19.2806C18.1658 19.2636 18.1785 19.2434 18.1872 19.221C18.1958 19.1987 18.2003 19.1747 18.2003 19.1505C18.2003 19.1262 18.1958 19.1023 18.1872 19.0799C18.1785 19.0576 18.1658 19.0373 18.1499 19.0203L17.7458 18.5811V18.0125L18.0749 18.4435C18.0909 18.4645 18.111 18.4813 18.1338 18.4928C18.1565 18.5043 18.1814 18.5101 18.2065 18.5098C18.2461 18.51 18.2845 18.4953 18.3152 18.4684C18.3496 18.4371 18.3712 18.3923 18.3752 18.3439C18.3792 18.2954 18.3654 18.2472 18.3366 18.2098L17.9371 17.686H18.5739L18.978 18.1219C19.0105 18.1559 19.0538 18.1749 19.099 18.175C19.1437 18.175 19.1866 18.1559 19.2184 18.1219C19.2343 18.1049 19.247 18.0847 19.2557 18.0624C19.2643 18.04 19.2688 18.016 19.2688 17.9918C19.2688 17.9676 19.2643 17.9436 19.2557 17.9212C19.247 17.8989 19.2343 17.8786 19.2184 17.8617L19.0561 17.6843H19.099C19.1214 17.6843 19.1436 17.6795 19.1643 17.6701C19.1851 17.6608 19.2039 17.6471 19.2197 17.6298C19.2355 17.6126 19.2479 17.5921 19.2564 17.5696C19.2648 17.5471 19.2691 17.523 19.2689 17.4987Z" fill="#EDF8FF"/>
<path d="M11.6527 21.1663C11.6527 21.1421 11.6483 21.1181 11.6397 21.0958C11.6312 21.0734 11.6186 21.0531 11.6028 21.036C11.587 21.0189 11.5682 21.0054 11.5476 20.9961C11.5269 20.9869 11.5048 20.9821 11.4824 20.9821H11.4379L11.6021 20.8046C11.634 20.77 11.652 20.7232 11.652 20.6743C11.652 20.6255 11.634 20.5787 11.6021 20.5441C11.5701 20.5096 11.5268 20.4902 11.4817 20.4902C11.4365 20.4902 11.3932 20.5096 11.3612 20.5441L10.9594 20.9821H10.4332L10.832 20.6254C10.8668 20.5942 10.8887 20.5493 10.8929 20.5006C10.897 20.4519 10.8832 20.4034 10.8543 20.3658C10.8254 20.3281 10.7839 20.3045 10.7388 20.3C10.6938 20.2955 10.649 20.3105 10.6142 20.3417L10.131 20.7747V20.0846L10.5344 19.6482C10.566 19.6135 10.5837 19.5667 10.5837 19.518C10.5837 19.4693 10.566 19.4225 10.5344 19.3878C10.5187 19.3705 10.5 19.3567 10.4793 19.3473C10.4586 19.3379 10.4365 19.3331 10.414 19.3331C10.3916 19.3331 10.3694 19.3379 10.3487 19.3473C10.3281 19.3567 10.3093 19.3705 10.2936 19.3878L10.131 19.5636V19.5172C10.131 19.4683 10.1131 19.4215 10.0811 19.3869C10.0492 19.3524 10.0059 19.333 9.96074 19.333C9.91559 19.333 9.87228 19.3524 9.84034 19.3869C9.80841 19.4215 9.79048 19.4683 9.79048 19.5172V19.5653L9.62481 19.3878C9.6091 19.3705 9.59036 19.3567 9.56969 19.3473C9.54901 19.3379 9.52681 19.3331 9.50439 19.3331C9.48197 19.3331 9.45977 19.3379 9.4391 19.3473C9.41842 19.3567 9.39968 19.3705 9.38397 19.3878C9.3524 19.4225 9.33471 19.4693 9.33471 19.518C9.33471 19.5667 9.3524 19.6135 9.38397 19.6482L9.79048 20.0862V20.6569L9.45914 20.2239C9.44542 20.2035 9.42797 20.1864 9.40788 20.1736C9.38779 20.1608 9.36548 20.1526 9.34234 20.1495C9.3192 20.1464 9.29571 20.1485 9.27334 20.1556C9.25098 20.1627 9.2302 20.1748 9.21231 20.1909C9.19441 20.2071 9.17977 20.2271 9.16931 20.2496C9.15884 20.2721 9.15277 20.2968 9.15146 20.3219C9.15015 20.3471 9.15364 20.3723 9.16171 20.396C9.16978 20.4197 9.18226 20.4413 9.19837 20.4595L9.59873 20.9821H8.96521L8.56024 20.5458C8.54443 20.5287 8.52565 20.5151 8.50499 20.5058C8.48433 20.4966 8.46219 20.4918 8.43982 20.4918C8.41746 20.4918 8.39532 20.4966 8.37466 20.5058C8.354 20.5151 8.33522 20.5287 8.31941 20.5458C8.3036 20.5629 8.29105 20.5832 8.28249 20.6055C8.27394 20.6279 8.26953 20.6518 8.26953 20.676C8.26953 20.7002 8.27394 20.7241 8.28249 20.7465C8.29105 20.7688 8.3036 20.7891 8.31941 20.8062L8.48354 20.9821H8.44059C8.39543 20.9821 8.35212 21.0015 8.32019 21.036C8.28826 21.0706 8.27032 21.1174 8.27032 21.1663C8.27032 21.2151 8.28826 21.2619 8.32019 21.2965C8.35212 21.331 8.39543 21.3504 8.44059 21.3504H8.48508L8.31941 21.5296C8.29581 21.5554 8.2798 21.5882 8.2734 21.6239C8.267 21.6596 8.2705 21.6965 8.28345 21.73C8.29641 21.7635 8.31824 21.7921 8.3462 21.8123C8.37416 21.8324 8.407 21.8431 8.44059 21.8431C8.46282 21.8435 8.48489 21.839 8.50545 21.8299C8.52602 21.8207 8.54466 21.8072 8.56024 21.79L8.96674 21.3504H9.49289L9.09406 21.7087C9.0768 21.7241 9.06255 21.743 9.05211 21.7644C9.04168 21.7858 9.03528 21.8092 9.03328 21.8333C9.03128 21.8574 9.03373 21.8816 9.04047 21.9047C9.04722 21.9277 9.05813 21.9491 9.07258 21.9676C9.08814 21.9887 9.10799 22.0057 9.13061 22.0172C9.15322 22.0287 9.17798 22.0344 9.20297 22.0339C9.24261 22.0341 9.28109 22.0194 9.31188 21.9924L9.79508 21.5594V22.2496L9.39165 22.6859C9.37564 22.7029 9.36293 22.7232 9.35426 22.7455C9.34558 22.7679 9.34111 22.7919 9.34111 22.8162C9.34111 22.8404 9.34558 22.8644 9.35426 22.8868C9.36293 22.9091 9.37564 22.9294 9.39165 22.9464C9.42377 22.9805 9.46702 22.9997 9.51206 22.9997C9.55711 22.9997 9.60035 22.9805 9.63248 22.9464L9.79508 22.7705V22.8153C9.79508 22.8642 9.81301 22.911 9.84495 22.9455C9.87688 22.9801 9.92019 22.9995 9.96535 22.9995C10.0105 22.9995 10.0538 22.9801 10.0857 22.9455C10.1177 22.911 10.1356 22.8642 10.1356 22.8153V22.7672L10.3013 22.9464C10.3332 22.9804 10.3761 22.9995 10.4209 22.9995C10.4661 22.9991 10.5094 22.9801 10.5421 22.9464C10.5737 22.9116 10.5914 22.8649 10.5914 22.8162C10.5914 22.7674 10.5737 22.7207 10.5421 22.6859L10.1279 22.2413V21.6772L10.4577 22.1086C10.4738 22.1296 10.4939 22.1464 10.5168 22.1579C10.5396 22.1694 10.5645 22.1752 10.5897 22.1749C10.6222 22.1755 10.6543 22.1659 10.6819 22.1472C10.7096 22.1286 10.7316 22.1016 10.7454 22.0697C10.7592 22.0378 10.7641 22.0022 10.7596 21.9673C10.7551 21.9324 10.7414 21.8996 10.7201 21.873L10.3197 21.3504H10.9594L11.3628 21.7867C11.3786 21.8041 11.3975 21.8178 11.4183 21.8272C11.4391 21.8366 11.4614 21.8415 11.484 21.8415C11.5063 21.8415 11.5284 21.8367 11.549 21.8273C11.5695 21.8179 11.5881 21.8041 11.6036 21.7867C11.6196 21.7697 11.6323 21.7495 11.641 21.7271C11.6497 21.7047 11.6541 21.6807 11.6541 21.6565C11.6541 21.6322 11.6497 21.6082 11.641 21.5859C11.6323 21.5635 11.6196 21.5432 11.6036 21.5263L11.441 21.3504H11.484C11.5289 21.35 11.5718 21.3304 11.6034 21.2959C11.635 21.2614 11.6527 21.2148 11.6527 21.1663Z" fill="#EDF8FF"/>
<path d="M17.577 21.1663C17.577 21.1174 17.5591 21.0706 17.5272 21.036C17.4953 21.0015 17.4521 20.9821 17.407 20.9821H17.3626L17.5265 20.8046C17.5583 20.77 17.5763 20.7232 17.5763 20.6743C17.5763 20.6255 17.5583 20.5787 17.5265 20.5441C17.4946 20.5096 17.4514 20.4902 17.4063 20.4902C17.3612 20.4902 17.318 20.5096 17.2861 20.5441L16.8819 20.9821H16.3567L16.7548 20.6254C16.7895 20.5942 16.8113 20.5493 16.8155 20.5006C16.8197 20.4519 16.8058 20.4034 16.777 20.3658C16.7481 20.3281 16.7067 20.3045 16.6618 20.3C16.6168 20.2955 16.5721 20.3105 16.5374 20.3417L16.055 20.7747V20.0846L16.4577 19.6482C16.4892 19.6135 16.5069 19.5667 16.5069 19.518C16.5069 19.4693 16.4892 19.4225 16.4577 19.3878C16.4421 19.3705 16.4233 19.3567 16.4027 19.3473C16.3821 19.3379 16.3599 19.3331 16.3375 19.3331C16.3152 19.3331 16.293 19.3379 16.2724 19.3473C16.2517 19.3567 16.233 19.3705 16.2173 19.3878L16.055 19.5636V19.5172C16.055 19.4683 16.0371 19.4215 16.0053 19.3869C15.9734 19.3524 15.9302 19.333 15.8851 19.333C15.84 19.333 15.7968 19.3524 15.7649 19.3869C15.733 19.4215 15.7151 19.4683 15.7151 19.5172V19.5653L15.5498 19.3878C15.5341 19.3705 15.5154 19.3567 15.4947 19.3473C15.4741 19.3379 15.452 19.3331 15.4296 19.3331C15.4072 19.3331 15.385 19.3379 15.3644 19.3473C15.3438 19.3567 15.3251 19.3705 15.3094 19.3878C15.2779 19.4225 15.2602 19.4693 15.2602 19.518C15.2602 19.5667 15.2779 19.6135 15.3094 19.6482L15.7151 20.0862V20.6569L15.3844 20.2239C15.3701 20.2053 15.3526 20.1899 15.3328 20.1786C15.3131 20.1673 15.2914 20.1603 15.2692 20.1581C15.2469 20.1559 15.2245 20.1584 15.2032 20.1656C15.1818 20.1727 15.162 20.1844 15.1448 20.1999C15.1276 20.2153 15.1134 20.2343 15.103 20.2557C15.0925 20.2772 15.0861 20.3006 15.084 20.3247C15.082 20.3488 15.0843 20.3731 15.0909 20.3963C15.0975 20.4194 15.1083 20.4409 15.1226 20.4595L15.5237 20.9821H14.8852L14.4826 20.5458C14.4668 20.5287 14.448 20.5151 14.4274 20.5058C14.4068 20.4966 14.3847 20.4918 14.3624 20.4918C14.34 20.4918 14.3179 20.4966 14.2973 20.5058C14.2767 20.5151 14.258 20.5287 14.2422 20.5458C14.2264 20.5629 14.2139 20.5832 14.2053 20.6055C14.1968 20.6279 14.1924 20.6518 14.1924 20.676C14.1924 20.7002 14.1968 20.7241 14.2053 20.7465C14.2139 20.7688 14.2264 20.7891 14.2422 20.8062L14.406 20.9821H14.3631C14.3181 20.9821 14.2748 21.0015 14.243 21.036C14.2111 21.0706 14.1932 21.1174 14.1932 21.1663C14.1932 21.2151 14.2111 21.2619 14.243 21.2965C14.2748 21.331 14.3181 21.3504 14.3631 21.3504H14.4075L14.2422 21.5296C14.2186 21.5554 14.2026 21.5882 14.1962 21.6239C14.1899 21.6596 14.1933 21.6965 14.2063 21.73C14.2192 21.7635 14.241 21.7921 14.2689 21.8123C14.2968 21.8324 14.3296 21.8431 14.3631 21.8431C14.3853 21.8435 14.4073 21.839 14.4279 21.8299C14.4484 21.8207 14.467 21.8072 14.4826 21.79L14.8883 21.3504H15.4135L15.0154 21.7087C14.9807 21.7398 14.9589 21.7845 14.9546 21.833C14.9503 21.8815 14.9639 21.9299 14.9924 21.9676C15.0084 21.9886 15.0285 22.0054 15.0513 22.0169C15.0741 22.0284 15.099 22.0342 15.1241 22.0339C15.1637 22.0341 15.2021 22.0194 15.2328 21.9924L15.7151 21.5594V22.2496L15.3124 22.6859C15.2965 22.7029 15.2838 22.7232 15.2751 22.7455C15.2665 22.7679 15.262 22.7919 15.262 22.8162C15.262 22.8404 15.2665 22.8644 15.2751 22.8868C15.2838 22.9091 15.2965 22.9294 15.3124 22.9464C15.3445 22.9805 15.3877 22.9997 15.4326 22.9997C15.4776 22.9997 15.5208 22.9805 15.5528 22.9464L15.7151 22.7705V22.8153C15.7151 22.8642 15.733 22.911 15.7649 22.9455C15.7968 22.9801 15.84 22.9995 15.8851 22.9995C15.9302 22.9995 15.9734 22.9801 16.0053 22.9455C16.0371 22.911 16.055 22.8642 16.055 22.8153V22.7672L16.2204 22.9464C16.2522 22.9804 16.2951 22.9995 16.3398 22.9995C16.3845 22.9995 16.4275 22.9804 16.4593 22.9464C16.4752 22.9294 16.4879 22.9091 16.4966 22.8868C16.5052 22.8644 16.5097 22.8404 16.5097 22.8162C16.5097 22.7919 16.5052 22.7679 16.4966 22.7455C16.4879 22.7232 16.4752 22.7029 16.4593 22.6859L16.055 22.2413V21.6772L16.3842 22.1086C16.4002 22.1296 16.4204 22.1464 16.4431 22.1579C16.4659 22.1694 16.4908 22.1752 16.5159 22.1749C16.5484 22.1755 16.5804 22.1659 16.608 22.1472C16.6356 22.1286 16.6576 22.1016 16.6714 22.0697C16.6851 22.0378 16.6901 22.0022 16.6856 21.9673C16.6811 21.9324 16.6674 21.8996 16.6461 21.873L16.2464 21.3504H16.8834L17.2861 21.7867C17.3019 21.8041 17.3207 21.8178 17.3415 21.8272C17.3623 21.8366 17.3845 21.8415 17.407 21.8415C17.4293 21.8415 17.4514 21.8367 17.4719 21.8273C17.4924 21.8179 17.511 21.8041 17.5265 21.7867C17.5424 21.7697 17.5551 21.7495 17.5638 21.7271C17.5725 21.7047 17.5769 21.6807 17.5769 21.6565C17.5769 21.6322 17.5725 21.6082 17.5638 21.5859C17.5551 21.5635 17.5424 21.5432 17.5265 21.5263L17.3642 21.3504H17.407C17.4294 21.3504 17.4515 21.3456 17.4721 21.3364C17.4927 21.3271 17.5114 21.3136 17.5272 21.2965C17.543 21.2794 17.5555 21.2591 17.5641 21.2367C17.5726 21.2144 17.577 21.1904 17.577 21.1663Z" fill="#EDF8FF"/>
</svg>
