<svg width="25" height="24" viewBox="0 0 25 24" fill="none" xmlns="http://www.w3.org/2000/svg">
<path d="M7.97031 7.70805C8.51343 7.70805 9.04435 7.86836 9.49593 8.1687C9.94752 8.46903 10.2995 8.89592 10.5073 9.39536C10.7152 9.8948 10.7695 10.4444 10.6636 10.9746C10.5576 11.5048 10.2961 11.9918 9.91206 12.374C9.52802 12.7563 9.03872 13.0166 8.50604 13.1221C7.97336 13.2276 7.42122 13.1734 6.91945 12.9666C6.41768 12.7597 5.98881 12.4093 5.68707 11.9599C5.38533 11.5104 5.22428 10.9819 5.22428 10.4413C5.22503 9.71665 5.51458 9.02187 6.0294 8.50944C6.54422 7.99701 7.24225 7.7088 7.97031 7.70805ZM7.97031 6.95313C7.27719 6.95313 6.59963 7.15771 6.02332 7.541C5.44701 7.92428 4.99783 8.46907 4.73259 9.10646C4.46734 9.74384 4.39794 10.4452 4.53316 11.1218C4.66838 11.7985 5.00215 12.42 5.49226 12.9079C5.98237 13.3957 6.60682 13.7279 7.28662 13.8625C7.96643 13.9971 8.67107 13.928 9.31143 13.664C9.95179 13.4 10.4991 12.9529 10.8842 12.3793C11.2693 11.8056 11.4748 11.1312 11.4748 10.4413C11.475 9.9832 11.3845 9.52952 11.2084 9.10623C11.0324 8.68294 10.7742 8.29833 10.4488 7.97438C10.1233 7.65043 9.73691 7.39351 9.31164 7.21827C8.88638 7.04304 8.43058 6.95294 7.97031 6.95313Z" fill="#FF9C07"/>
<path d="M7.19727 6.47787L7.9699 4L8.74395 6.47787H7.19727Z" fill="#FF9C07"/>
<path d="M5.30902 7.39336L4.73486 4.86328L6.64872 6.62432L5.30902 7.39336Z" fill="#FF9C07"/>
<path d="M4.13547 9.1261L2.36621 7.21973L4.90811 7.79263L4.13547 9.1261Z" fill="#FF9C07"/>
<path d="M3.98802 11.2104L1.5 10.4413L3.98802 9.6709V11.2104Z" fill="#FF9C07"/>
<path d="M4.90811 13.0903L2.36621 13.6618L4.13547 11.7568L4.90811 13.0903Z" fill="#FF9C07"/>
<path d="M6.64872 14.2593L4.73486 16.0203L5.30902 13.4902L6.64872 14.2593Z" fill="#FF9C07"/>
<path d="M8.74342 14.4053L7.96936 16.8831L7.19531 14.4053H8.74342Z" fill="#FF9C07"/>
<path d="M10.6317 13.4902L11.2059 16.0203L9.29199 14.2593L10.6317 13.4902Z" fill="#FF9C07"/>
<path d="M11.8068 11.7568L13.5746 13.6618L11.0327 13.0903L11.8068 11.7568Z" fill="#FF9C07"/>
<path d="M11.9526 9.6709L14.4421 10.4413L11.9526 11.2104V9.6709Z" fill="#FF9C07"/>
<path d="M11.0327 7.7922L13.5746 7.2207L11.8068 9.12567L11.0327 7.7922Z" fill="#FF9C07"/>
<path d="M9.29199 6.6229L11.2073 4.86328L10.6317 7.39336L9.29199 6.6229Z" fill="#FF9C07"/>
<path d="M23.4999 15.7186C23.5 14.964 23.2469 14.2309 22.7808 13.6358C22.3146 13.0406 21.6621 12.6175 20.9268 12.4336C20.8254 11.9773 20.6026 11.5565 20.2819 11.2152C19.9612 10.8739 19.5543 10.6246 19.1037 10.4933C19.1357 10.3823 19.1519 10.2674 19.1519 10.1518C19.1522 9.90961 19.0804 9.67272 18.9456 9.47106C18.8108 9.26939 18.619 9.11198 18.3944 9.0187C18.1698 8.92541 17.9225 8.90043 17.6836 8.94689C17.4448 8.99336 17.2251 9.1092 17.0523 9.2798C16.6014 8.84838 16.0609 8.52064 15.4689 8.31969C14.877 8.11874 14.2479 8.04945 13.6261 8.11673C13.0043 8.184 12.4049 8.38619 11.8702 8.70905C11.3354 9.0319 10.8783 9.46757 10.531 9.98534C10.0841 9.79917 9.59397 9.74036 9.11541 9.81547C8.63684 9.89057 8.18868 10.0966 7.82099 10.4106C7.4533 10.7247 7.18057 11.1342 7.03327 11.5936C6.88596 12.053 6.86988 12.5442 6.98683 13.0121C6.19395 13.0657 5.45287 13.4233 4.91949 14.0097C4.38611 14.5961 4.10203 15.3655 4.12701 16.1561C4.15198 16.9467 4.48407 17.6969 5.05341 18.2488C5.62275 18.8006 6.38494 19.1112 7.17963 19.1151H20.5157V19.0869C21.3406 18.9852 22.0996 18.5864 22.6494 17.9659C23.1992 17.3453 23.5017 16.5459 23.4999 15.7186Z" fill="white"/>
</svg>
