<svg width="24" height="24" viewBox="0 0 24 24" fill="none" xmlns="http://www.w3.org/2000/svg">
<path d="M1 9.70196C1.0007 9.15806 1.12326 8.62107 1.35887 8.1297C1.59447 7.63833 1.93725 7.20479 2.36251 6.86033C2.78776 6.51587 3.28491 6.26905 3.81814 6.13767C4.35137 6.00629 4.9074 5.9936 5.44617 6.10053H5.45698C5.71479 5.70058 6.07021 5.37134 6.49045 5.14319C6.91069 4.91503 7.38222 4.79532 7.86153 4.79509C7.94184 4.79509 8.01596 4.79509 8.09781 4.80732C8.07269 4.64336 8.05927 4.47786 8.05766 4.31205C8.05675 3.58431 8.29831 2.87658 8.74493 2.2985C9.19155 1.72042 9.81829 1.30425 10.5281 1.11447C11.2379 0.924683 11.9911 0.971873 12.671 1.24873C13.3509 1.52558 13.9197 2.01665 14.2891 2.64585C14.6578 2.40267 15.0787 2.24777 15.5184 2.19341C15.9581 2.13905 16.4045 2.18672 16.8224 2.33264C17.2403 2.47857 17.6181 2.71875 17.9259 3.03418C18.2338 3.3496 18.4633 3.73163 18.5963 4.15001C19.7304 4.21274 20.8024 4.68296 21.6111 5.47245C22.4198 6.26195 22.9096 7.31643 22.9887 8.43801C23.0677 9.5596 22.7305 10.6712 22.0404 11.5642C21.3502 12.4571 20.3546 13.0701 19.2403 13.2881V13.3752H4.71261C4.22496 13.376 3.74195 13.2816 3.29125 13.0973C2.84055 12.913 2.43102 12.6425 2.08613 12.3012C1.74125 11.96 1.46777 11.5548 1.2814 11.1087C1.09502 10.6627 0.999393 10.1846 1 9.70196Z" fill="#9AD8FF"/>
<path d="M12.6265 17.093L14.0161 14.2915H10.0953L9.36208 17.7196L8.95703 19.6208L10.6381 19.4084L14.2018 18.9606L12.9323 23L15.9021 18.415L16.4464 17.5744L15.2281 17.42L12.6265 17.093Z" fill="#FF9C07"/>
<path d="M19.5173 15.6155L17.4703 15.4509L18.0939 14.2989L18.073 14.2915H16.2728L15.8031 15.7609L15.5098 16.6779L16.4315 16.6044L18.9162 16.4046L17.5248 19.7916L19.8812 16.1459L20.1906 15.6684L19.5173 15.6155Z" fill="#FF9C07"/>
<path d="M4.88329 15.6155L6.72565 15.4509L6.16443 14.2989L6.18319 14.2915H7.80337L8.22609 15.7609L8.49011 16.6779L7.66054 16.6044L5.42431 16.4046L6.6766 19.7916L4.55579 16.1459L4.27734 15.6684L4.88329 15.6155Z" fill="#FF9C07"/>
</svg>
